<svg width="2231" height="1449" viewBox="0 0 2231 1449" fill="none" xmlns="http://www.w3.org/2000/svg">
<g clip-path="url(#clip0_166_257)">
<line x1="362.5" y1="-2.18557e-08" x2="362.5" y2="1449" stroke="#202020" stroke-dasharray="5 5"/>
<line x1="739.5" y1="-2.18557e-08" x2="739.5" y2="1449" stroke="#202020" stroke-dasharray="5 5"/>
<line x1="1116.5" y1="-2.18557e-08" x2="1116.5" y2="1449" stroke="#202020" stroke-dasharray="5 5"/>
<line x1="1493.5" y1="-2.18557e-08" x2="1493.5" y2="1449" stroke="#202020" stroke-dasharray="5 5"/>
<line x1="1870.5" y1="-2.18557e-08" x2="1870.5" y2="1449" stroke="#202020" stroke-dasharray="5 5"/>
<line x1="-3.36508e-08" y1="923.5" x2="2231" y2="923.5" stroke="#202020" stroke-dasharray="5 5"/>
<line x1="-3.36508e-08" y1="1123.5" x2="2231" y2="1123.5" stroke="#202020" stroke-dasharray="5 5"/>
<line x1="-3.36508e-08" y1="1323.5" x2="2231" y2="1323.5" stroke="#202020" stroke-dasharray="5 5"/>
<line x1="-3.36508e-08" y1="723.5" x2="2231" y2="723.5" stroke="#202020" stroke-dasharray="5 5"/>
<line x1="-3.36508e-08" y1="523.5" x2="2231" y2="523.5" stroke="#202020" stroke-dasharray="5 5"/>
<line x1="-3.36508e-08" y1="323.5" x2="2231" y2="323.5" stroke="#202020" stroke-dasharray="5 5"/>
<line x1="-3.36508e-08" y1="123.5" x2="2231" y2="123.5" stroke="#202020" stroke-dasharray="5 5"/>
</g>
<defs>
<clipPath id="clip0_166_257">
<rect width="2231" height="1449" fill="white"/>
</clipPath>
</defs>
</svg>
